<svg xmlns="http://www.w3.org/2000/svg" fill="none" viewBox="0 0 16 16"><g clip-path="url(#a)"><path fill="#666" fill-rule="evenodd" d="M10.27 14.1a6.52 6.52 0 0 0 3.67-3.45c-.82.14-1.73.26-2.7.34-.2 1.21-.54 2.27-.97 3.1ZM8 16A8 8 0 1 0 8 0a8 8 0 0 0 0 16Zm.48-1.52a6.61 6.61 0 0 1-.96 0H7.5a4.18 4.18 0 0 1-.84-1.32c-.25-.59-.47-1.29-.63-2.08a40.24 40.24 0 0 0 3.92 0c-.16.8-.38 1.5-.63 2.08a4.18 4.18 0 0 1-.84 1.31v.01Zm2.94-4.76c1.1-.1 2.1-.25 2.95-.43a6.53 6.53 0 0 0 0-2.58c-.86-.18-1.86-.33-2.95-.43a18.07 18.07 0 0 1 0 3.44Zm-1.27-3.54a16.68 16.68 0 0 1 0 3.64 38.72 38.72 0 0 1-4.3 0 16.68 16.68 0 0 1 0-3.64 38.73 38.73 0 0 1 4.3 0Zm1.1-1.17c.96.08 1.87.2 2.69.34a6.52 6.52 0 0 0-3.67-3.44c.43.83.76 1.89.98 3.1ZM8.48 1.5l.01.02c.27.25.56.68.84 1.31.25.59.47 1.29.63 2.08a40.23 40.23 0 0 0-3.92 0c.16-.8.38-1.5.63-2.08a4.18 4.18 0 0 1 .85-1.32 6.59 6.59 0 0 1 .96 0Zm-2.75.4a6.52 6.52 0 0 0-3.67 3.44 29.2 29.2 0 0 1 2.7-.34c.2-1.21.54-2.27.97-3.1ZM4.58 6.28c-1.1.1-2.1.25-2.95.43a6.53 6.53 0 0 0 0 2.58c.86.18 1.86.33 2.95.43a18.05 18.05 0 0 1 0-3.44Zm.17 4.71c-.96-.08-1.87-.2-2.69-.34a6.52 6.52 0 0 0 3.67 3.44c-.43-.83-.76-1.89-.98-3.1Z" clip-rule="evenodd"/></g><defs><clipPath id="a"><path fill="#fff" d="M0 0h16v16H0z"/></clipPath></defs></svg>
