<svg xmlns="http://www.w3.org/2000/svg" version="1.0" viewBox="0 0 512 512"><path d="M220.15 26.02c-26.6 3.6-53.7 12.5-77.7 25.6-10.8 5.9-29.7 18.2-34 22.2-.9.8-3.8 3.3-6.5 5.5-6.4 5.1-19.9 18.5-25 24.9-2.2 2.8-5 6.1-6.2 7.4-9.1 9.9-26.4 39.7-33.4 57.5-2 5.1-7.8 22.1-8.4 24.7-.2.8-1.3 5.5-2.5 10.4-1.1 5-2.3 10.6-2.6 12.5-.2 2-.6 4.5-.9 5.6-2.6 13.4-2.6 55 0 68a72 72 0 0 1 1 5.5c3.2 22.3 14.2 52.8 26.6 74.6 15.8 27.6 38.7 53.8 62.2 71.1 3.9 3 8 6 9 6.8.9.8 1.9 1.5 2.2 1.5.4 0 6.9 4.1 9 5.7a29 29 0 0 0 4 2.3c1.7.8 5.2 2.7 7.9 4.3 9.6 5.5 32.7 14.6 47.6 18.6 18.1 4.9 30.7 6.8 49.7 7.6 10.1.4 11.3.3 12.2-1.3.6-1.1 1-86.4 1-231 0-205.6-.2-229.4-1.6-230.7-2-2-16.1-1.7-33.6.7zm80.3 9.4c-6.8 1.3-15.8 4.4-18.1 6.2-11.2 8.9-15.8 16.6-15.3 25.5.3 7 .8 8.8 3.7 13.3 3.7 5.9 10.5 11.7 17.2 14.6 7.7 3.4 11.9 4.2 23 4.1 16.8 0 30.5-6.7 38.2-18.7 2.8-4.4 3.3-6.1 3.7-13.2.3-4.1-.3-6.5-2.6-11.2-7.5-15.7-29-24.6-49.8-20.6zm-7.5 91c-21 4.8-32.2 28.4-22.6 47.9 4.7 9.6 13.7 16.4 24.2 18.3 2.4.5 26.5.8 53.4.7 48.6-.2 49-.2 54.9-2.5 11.6-4.5 20-15.6 21.3-28 .5-5.9-.9-14.3-3.2-19-2.6-5.2-9.7-12-15.3-14.7l-5.7-2.8-52.5-.2c-28.9 0-53.4.1-54.5.3zm0 97.9c-15.3 3.5-25.6 16.3-26.1 32.4-.4 12.7 7.5 25.4 19.4 30.9l5.7 2.7 84.3.2 84.3.2 6.2-2.7c13.7-5.9 20.8-17.2 20.3-32.4-.4-14.6-8.8-25.5-24.1-31.4-3.4-1.3-164.3-1.2-170 .1zm-3.1 102.6c-16.4 5-26.3 23.1-22 39.8 3 11.6 11.3 20.7 22 24 5.7 1.7 9.8 1.8 57.1 1.6 28.1-.1 51.7-.4 52.5-.7 8.4-2.2 17.3-9.6 21.6-17.9 2.5-4.7 2.8-6.6 2.9-14.4 0-7.7-.4-9.8-2.6-14.6-3.4-7.2-9.6-13.4-16.8-16.8l-5.6-2.6-51.5-.1c-48-.2-51.9-.1-57.6 1.7zm5.4 91.8c-8.6 2.3-15.2 6.2-20.9 12.2-11.1 11.7-9.9 26.5 3 38 3 2.6 5.7 4.7 6 4.6.3 0 2 .6 3.6 1.5 5.2 2.8 11.7 4.1 21 4.4 15.7.5 27.6-3.6 36.4-12.4 8-8 10.5-17 7.4-26.2-3.1-9.3-13.4-18.1-25.1-21.6-8.2-2.5-23.1-2.7-31.4-.5z"/></svg>
